# xmcd
#
# Track frame offsets:
#	150
#	12192
#	26338
#	38221
#	57657
#	75954
#	89404
#	105225
#	120874
#	133445
#	151809
#	166441
#	178285
#	190086
#	202735
#	217089
#	234446
#	245773
#	262156
#	279570
#	295648
#	309424
#	322206
#	337202
#
# Disc length: 4672 seconds
#
# Revision: 0
# Processed by: cddbd v1.5.1PL0 Copyright (c) Steve Scherf et al.
# Submitted via: audiograbber 1.83.01
#
DISCID=5a123e18
DTITLE=Danses Country - CD 2
DYEAR=1900
DGENRE=
TTITLE0=Dean Brothers - Texas Waltz (Spanish Waltzing)
TTITLE1=Joni Harms - After All ()
TTITLE2=Johnny Lee - Bill's Boogie ( Hey Bartender)
TTITLE3=Lynn Anderson - Sweetheart Cha Cha (Under The Boardwalk)
TTITLE4=Bellamy Brothers - Country Boot (Country Beat)
TTITLE5=LCD - Ghost Train (Zorba's Dance)
TTITLE6=Little Texas - God Blessed Texas
TTITLE7=Dean Brothers - Heavy Heart (Heartaches By The Number)
TTITLE8=Georges Strait - Honkytonk Ville
TTITLE9=Toby Keith - I Love This Bar
TTITLE10=Trishia Yearwood - It's All Right
TTITLE11=Keith Harling - L T G (Right In The Middle)
TTITLE12=Jason Mc Coy - Wild Turkey Kicker (I Feel A Sin's Comin Home)
TTITLE13=BR5-49 - Mambo Rock (Seven Night To Rock)
TTITLE14=Dean Brothers - Special D (Return To Sender)
TTITLE15=Alan Jackson - Montana (Chatahoochie)
TTITLE16=Ricky Van Shelton - Tear For You (I've Cries My Last Tear For You)
TTITLE17=Jenai - Time To Dream
TTITLE18=Martina McBride - Tuesday Cha Cha (Keeping My Distance)
TTITLE19=Joni Harms - Sweet Caballero (Ay Yi Yi Yi)
TTITLE20=Joni Harms - West Texas Waltz (Honky Tonk Man)
TTITLE21=Dwight Yoakam - Tush Push (Honky Tonk Man)
TTITLE22=Ronnie Beard - Bump and Grind
TTITLE23=Jason McCoy - Please Please
EXTD=
EXTT0=
EXTT1=
EXTT2=
EXTT3=
EXTT4=
EXTT5=
EXTT6=
EXTT7=
EXTT8=
EXTT9=
EXTT10=
EXTT11=
EXTT12=
EXTT13=
EXTT14=
EXTT15=
EXTT16=
EXTT17=
EXTT18=
EXTT19=
EXTT20=
EXTT21=
EXTT22=
EXTT23=
PLAYORDER=
